<?xml version="1.0" encoding="UTF-8" standalone="no"?>
<!-- Created with Inkscape (http://www.inkscape.org/) -->

<svg
   version="1.1"
   id="svg1"
   width="82"
   height="104"
   viewBox="0 0 100 110"
   sodipodi:docname="fiverr2.svg"
   inkscape:version="1.3 (0e150ed6c4, 2023-07-21)"
   xmlns:inkscape="http://www.inkscape.org/namespaces/inkscape"
   xmlns:sodipodi="http://sodipodi.sourceforge.net/DTD/sodipodi-0.dtd"
   xmlns="http://www.w3.org/2000/svg"
   xmlns:svg="http://www.w3.org/2000/svg">
  <defs
     id="defs1">
    <linearGradient
       x1="0"
       y1="0"
       x2="1"
       y2="0"
       gradientUnits="userSpaceOnUse"
       gradientTransform="matrix(28,29.11084,-29.11084,28,200.15527,-185.09473)"
       spreadMethod="pad"
       id="linearGradient7">
      <stop
         style="stop-opacity:1;stop-color:#c8ebc6"
         offset="0"
         id="stop5" />
      <stop
         style="stop-opacity:1;stop-color:#0fab4b"
         offset="0.83708"
         id="stop6" />
      <stop
         style="stop-opacity:1;stop-color:#0fab4b"
         offset="1"
         id="stop7" />
    </linearGradient>
    <clipPath
       clipPathUnits="userSpaceOnUse"
       id="clipPath11">
      <path
         d="m 220.66698,193.66649 h 10.84668 v -50.50047 h -10.84668 z"
         transform="scale(1,-1)"
         id="path11" />
    </clipPath>
    <clipPath
       clipPathUnits="userSpaceOnUse"
       id="clipPath13">
      <path
         d="M 224.67772,209.66649 H 227 V 199.5 h -2.32228 z"
         transform="scale(1,-1)"
         id="path13" />
    </clipPath>
    <clipPath
       clipPathUnits="userSpaceOnUse"
       id="clipPath15">
      <path
         d="m 207.66699,201.66649 h 9.66602 v -29.00047 h -9.66602 z"
         transform="scale(1,-1)"
         id="path15" />
    </clipPath>
    <clipPath
       clipPathUnits="userSpaceOnUse"
       id="clipPath17">
      <path
         d="m 190.5,185.86963 h 33.66698 V 162.16602 H 190.5 Z"
         transform="scale(1,-1)"
         id="path17" />
    </clipPath>
    <clipPath
       clipPathUnits="userSpaceOnUse"
       id="clipPath19">
      <path
         d="m 182,149.33301 h 35.33301 V 142 H 182 Z"
         transform="scale(1,-1)"
         id="path19" />
    </clipPath>
  </defs>
  <sodipodi:namedview
     id="namedview1"
     pagecolor="#ffffff"
     bordercolor="#000000"
     borderopacity="0.25"
     inkscape:showpageshadow="2"
     inkscape:pageopacity="0.0"
     inkscape:pagecheckerboard="0"
     inkscape:deskcolor="#d1d1d1"
     inkscape:zoom="3.8458333"
     inkscape:cx="239.86999"
     inkscape:cy="239.73998"
     inkscape:window-width="3840"
     inkscape:window-height="2081"
     inkscape:window-x="2869"
     inkscape:window-y="-11"
     inkscape:window-maximized="1"
     inkscape:current-layer="svg1">
    <inkscape:page
       x="0"
       y="0"
       inkscape:label="1"
       id="page1"
       width="100"
       height="110"
       margin="185.96484 45.175785 190.16536 51.999348"
       bleed="0" />
  </sodipodi:namedview>
  <style>
    @media (prefers-color-scheme: dark) {
      .bg { fill: black; }
    }
  </style>
  <rect class="bg" width="100" height="110" fill="none"/>
  <g
     id="group-MC0"
     transform="matrix(1.1677539,0,0,1.1677539,-278.19916,-227.85957)">
    <path
       id="path5"
       d="m 237.27539,-193.95703 c 1.92481,0.57764 3.46582,0.28857 3.27344,-0.48145 -0.19238,-0.77002 -2.50293,-3.85058 -4.23633,-3.85058 -1.7334,0 -2.11719,-1.44434 -3.94629,-1.34815 -0.82226,0.0435 -2.67871,0.24805 -4.72461,1.04932 0.0156,-0.91211 -0.0703,-1.79248 -0.31055,-2.58057 -1.08496,-3.56738 -1.5996,-6.70263 -0.29394,-7.80908 0.71289,-0.604 2.88672,-0.20264 3.75977,-0.73877 0.64843,0.16406 2.0791,0.88916 3.50488,-0.31836 0.83105,-0.7041 1.31933,-0.6084 1.31933,-0.6084 0,0 -0.28125,-0.33056 -0.78027,-0.40381 -1.72852,0.57374 -3.80273,0.72803 -3.91797,0.11329 2.52637,0.27343 3.95606,-1.38184 4.19043,-1.68067 -0.5918,-0.72314 -1.6289,-1.85254 -2.27344,-1.79248 -0.94629,0.0879 -1.46679,-0.28613 -2.14843,-0.729 -0.68164,-0.44239 -3.40039,-0.28028 -5.65528,1.63232 -2.25488,1.91162 -4.04297,6.18018 -3.16699,9.6211 0.40527,1.5957 0.36231,3.18554 0.1084,4.67675 -0.043,1.41065 -0.40527,3.86817 -1.57129,8.13672 -2.27637,6.37989 -1.35059,14.17237 -0.0742,16.26905 0.82715,1.35937 1.98047,4.34863 2.74805,6.45703 -0.92578,-0.99805 -2.11231,-1.91309 -3.58106,-2.72461 -6.69726,-5.792 -6.13672,-15.13575 -6.62402,-23.18262 -0.40918,-6.75 -4.66504,-8.39355 -7.70605,-8.49512 -1.1377,-0.12549 -2.28418,0.0107 -3.33008,0.34424 -4.15332,1.32373 -5.55957,5.8291 -5.13086,6.83984 1.30762,1.60889 1.0498,7.41553 1.74121,7.36084 0.52148,-0.041 1.50976,-2.37988 1.86719,-3.35595 -0.10645,0.64941 -0.0273,1.75732 0.47168,2.12353 0.62597,0.45996 0.71191,-0.48584 0.71191,-0.48584 0,0 0.0654,-1.50439 1.37695,-3.85986 1.3125,-2.35498 0.62891,-2.51465 -0.43457,-3.76904 8.07129,-2.22705 5.71192,10.12304 4.3916,13.68506 -0.58593,1.57812 -0.60351,2.95117 -0.4414,3.99316 -0.006,-0.0117 -0.0137,-0.0215 -0.0195,-0.0332 -1.92578,-3.94727 -7.02735,-6.5459 -10.68555,-6.5459 -3.6582,0 -6.35352,2.02148 -6.64258,2.98437 -0.28906,0.96289 -0.48144,1.73242 -1.44433,2.40625 -0.65723,0.45996 -0.73145,2.35449 -0.71192,3.51074 0.46094,0.0937 3.13477,0.51172 5.29883,-1.76562 0.38379,0.6709 -1.69727,2.18555 -3.78711,3.02539 -0.41211,0.46875 -0.41406,1.00586 -0.41406,1.00586 0,0 0.38476,-0.48145 1.73242,-0.48145 2.31055,0 3.08105,-1.8291 3.5625,-2.50293 1.25195,-0.19238 2.9834,-2.31054 4.13867,-2.31054 2.11719,0 4.13965,3.37012 5.96875,7.60547 1.8291,4.23535 7.99024,7.79785 10.78223,8.66406 0.78223,0.24316 1.42383,0.4834 1.95996,0.70703 1.91406,1.05371 6.49609,4.18457 4.98144,9.35156 -0.99121,1.2041 -2.09863,2.42383 -3.1875,3.80567 -3.94726,5.00683 -13.38085,5.87207 -21.17871,4.33203 -12.22558,-2.50293 -16.75097,5.10156 -15.5957,5.10156 5.00586,-5.58398 16.07715,-0.48144 25.0293,0.48145 17.80957,0.86621 25.6084,-8.95313 26.28222,-17.23145 0.67383,-8.27832 -4.04296,-18.00391 -6.93066,-24.646 -2.8877,-6.64209 2.40625,-11.35986 4.52441,-10.9746 1.44434,2.21435 3.36914,1.15527 4.81348,2.11767 1.44434,0.9624 4.13965,0.77002 4.81348,0.28906 -3.08008,0 -5.96875,-3.17724 -5.96875,-3.17724 0,0 1.63672,-0.38477 3.56152,0.19287 z"
       style="fill:#231f20;fill-opacity:1;fill-rule:nonzero;stroke:#231f20;stroke-width:2;stroke-linecap:round;stroke-linejoin:round;stroke-miterlimit:4;stroke-dasharray:none;stroke-opacity:1"
       transform="matrix(1.3333333,0,0,1.3333333,0,480)" />
    <path
       id="path7"
       d="m 237.27539,-193.95703 c 1.92481,0.57764 3.46582,0.28857 3.27344,-0.48145 -0.19238,-0.77002 -2.50293,-3.85058 -4.23633,-3.85058 -1.7334,0 -2.11719,-1.44434 -3.94629,-1.34815 -0.82226,0.0435 -2.67871,0.24805 -4.72461,1.04932 0.0156,-0.91211 -0.0703,-1.79248 -0.31055,-2.58057 -1.08496,-3.56738 -1.5996,-6.70263 -0.29394,-7.80908 0.71289,-0.604 2.88672,-0.20264 3.75977,-0.73877 0.64843,0.16406 2.0791,0.88916 3.50488,-0.31836 0.83105,-0.7041 1.31933,-0.6084 1.31933,-0.6084 0,0 -0.28125,-0.33056 -0.78027,-0.40381 -1.72852,0.57374 -3.80273,0.72803 -3.91797,0.11329 2.52637,0.27343 3.95606,-1.38184 4.19043,-1.68067 -0.5918,-0.72314 -1.6289,-1.85254 -2.27344,-1.79248 -0.94629,0.0879 -1.46679,-0.28613 -2.14843,-0.729 -0.68164,-0.44239 -3.40039,-0.28028 -5.65528,1.63232 -2.25488,1.91162 -4.04297,6.18018 -3.16699,9.6211 0.40527,1.5957 0.36231,3.18554 0.1084,4.67675 -0.043,1.41065 -0.40527,3.86817 -1.57129,8.13672 -2.27637,6.37989 -1.35059,14.17237 -0.0742,16.26905 0.82715,1.35937 1.98047,4.34863 2.74805,6.45703 -0.92578,-0.99805 -2.11231,-1.91309 -3.58106,-2.72461 -6.69726,-5.792 -6.13672,-15.13575 -6.62402,-23.18262 -0.40918,-6.75 -4.66504,-8.39355 -7.70605,-8.49512 -1.1377,-0.12549 -2.28418,0.0107 -3.33008,0.34424 -4.15332,1.32373 -5.55957,5.8291 -5.13086,6.83984 1.30762,1.60889 1.0498,7.41553 1.74121,7.36084 0.52148,-0.041 1.50976,-2.37988 1.86719,-3.35595 -0.10645,0.64941 -0.0273,1.75732 0.47168,2.12353 0.62597,0.45996 0.71191,-0.48584 0.71191,-0.48584 0,0 0.0654,-1.50439 1.37695,-3.85986 1.3125,-2.35498 0.62891,-2.51465 -0.43457,-3.76904 8.07129,-2.22705 5.71192,10.12304 4.3916,13.68506 -0.58593,1.57812 -0.60351,2.95117 -0.4414,3.99316 -0.006,-0.0117 -0.0137,-0.0215 -0.0195,-0.0332 -1.92578,-3.94727 -7.02735,-6.5459 -10.68555,-6.5459 -3.6582,0 -6.35352,2.02148 -6.64258,2.98437 -0.28906,0.96289 -0.48144,1.73242 -1.44433,2.40625 -0.65723,0.45996 -0.73145,2.35449 -0.71192,3.51074 0.46094,0.0937 3.13477,0.51172 5.29883,-1.76562 0.38379,0.6709 -1.69727,2.18555 -3.78711,3.02539 -0.41211,0.46875 -0.41406,1.00586 -0.41406,1.00586 0,0 0.38476,-0.48145 1.73242,-0.48145 2.31055,0 3.08105,-1.8291 3.5625,-2.50293 1.25195,-0.19238 2.9834,-2.31054 4.13867,-2.31054 2.11719,0 4.13965,3.37012 5.96875,7.60547 1.8291,4.23535 7.99024,7.79785 10.78223,8.66406 0.78223,0.24316 1.42383,0.4834 1.95996,0.70703 1.91406,1.05371 6.49609,4.18457 4.98144,9.35156 -0.99121,1.2041 -2.09863,2.42383 -3.1875,3.80567 -3.94726,5.00683 -13.38085,5.87207 -21.17871,4.33203 -12.22558,-2.50293 -16.75097,5.10156 -15.5957,5.10156 5.00586,-5.58398 16.07715,-0.48144 25.0293,0.48145 17.80957,0.86621 25.6084,-8.95313 26.28222,-17.23145 0.67383,-8.27832 -4.04296,-18.00391 -6.93066,-24.646 -2.8877,-6.64209 2.40625,-11.35986 4.52441,-10.9746 1.44434,2.21435 3.36914,1.15527 4.81348,2.11767 1.44434,0.9624 4.13965,0.77002 4.81348,0.28906 -3.08008,0 -5.96875,-3.17724 -5.96875,-3.17724 0,0 1.63672,-0.38477 3.56152,0.19287 z"
       transform="matrix(1.3333333,0,0,1.3333333,0,480)"
       style="fill:url(#linearGradient7);stroke:none" />
    <path
       id="path8"
       d="m 228.375,-199.375 c -0.375,0 -7.375,1.875 -9,10"
       style="fill:none;stroke:#231f20;stroke-width:1;stroke-linecap:butt;stroke-linejoin:miter;stroke-miterlimit:4;stroke-dasharray:none;stroke-opacity:1"
       transform="matrix(1.3333333,0,0,1.3333333,0,480)" />
    <path
       id="path9"
       d="m 206,-181.875 c 0,0 1.75,6.625 6.125,8.5 4.375,1.875 8.375,1.875 10.625,4.5"
       style="fill:none;stroke:#231f20;stroke-width:1;stroke-linecap:butt;stroke-linejoin:miter;stroke-miterlimit:4;stroke-dasharray:none;stroke-opacity:1"
       transform="matrix(1.3333333,0,0,1.3333333,0,480)" />
    <path
       id="path10"
       d="m 220.875,-156.125 c 0,0 1.125,9.25 -7.375,12"
       style="fill:none;stroke:#231f20;stroke-width:1;stroke-linecap:butt;stroke-linejoin:miter;stroke-miterlimit:4;stroke-dasharray:none;stroke-opacity:1"
       transform="matrix(1.3333333,0,0,1.3333333,0,480)" />
    <g
       opacity="0.48"
       id="g12">
      <path
         d="m 228.33301,-193.6665 c 0,0 -7.33301,3.1665 -2.83301,13.83349 4.5,10.66699 13.00098,25.66699 -4.83301,36.66699 1.5,-1.33398 12.47852,-8.04492 5.83301,-27 -6.64551,-18.95556 -3.00098,-21.83398 1.83301,-23.50048 z"
         style="fill:#ffffff;fill-opacity:1;fill-rule:nonzero;stroke:none"
         transform="matrix(1.3333333,0,0,1.3333333,0,480)"
         clip-path="url(#clipPath11)"
         id="path12" />
    </g>
    <g
       opacity="0.48"
       id="g14">
      <path
         d="m 226.5,-209.6665 c 0,0 -0.99902,0.6665 -0.83301,2.1665 0.16602,1.5 1.33301,7.3335 1.33301,7.3335 0,0 -1.16699,0.6665 -1.16699,0.6665 0,0 -3,-7.83301 0.66699,-10.1665 z"
         style="fill:#ffffff;fill-opacity:1;fill-rule:nonzero;stroke:none"
         transform="matrix(1.3333333,0,0,1.3333333,0,480)"
         clip-path="url(#clipPath13)"
         id="path14" />
    </g>
    <g
       opacity="0.48"
       id="g16">
      <path
         d="m 207.66699,-201.6665 c 0,0 4.66699,1.16699 4.5,8.33349 -0.16699,7.16651 1.58887,17.69824 5.16602,20.66699 C 216.5,-172.83301 212.75,-174.375 212.75,-174.375 c 0,0 -2.41602,-7.2915 -2.08301,-13.7915 0.33301,-6.5 0.33399,-10.8335 -3,-13.5 z"
         style="fill:#ffffff;fill-opacity:1;fill-rule:nonzero;stroke:none"
         transform="matrix(1.3333333,0,0,1.3333333,0,480)"
         clip-path="url(#clipPath15)"
         id="path16" />
    </g>
    <g
       opacity="0.48"
       id="g18">
      <path
         d="m 224.16699,-162.16602 c 0,0 -2.16797,-6.5 -7.33398,-8.16699 -5.16602,-1.66699 -9.66602,-4.16601 -11.16602,-8.33301 -1.5,-4.16699 -7,-9.66699 -15.16699,-6.00048 1.83301,-0.5 10.66602,-1.99952 13.33301,5.00048 2.66699,7 6.66699,9.16602 10.16699,9.66602 3.5,0.5 9.50098,5.00098 10.16699,7.83398 z"
         style="fill:#ffffff;fill-opacity:1;fill-rule:nonzero;stroke:none"
         transform="matrix(1.3333333,0,0,1.3333333,0,480)"
         clip-path="url(#clipPath17)"
         id="path18" />
    </g>
    <g
       opacity="0.48"
       id="g20">
      <path
         d="m 217.33301,-149.33301 c 0,0 -4.5,5.16602 -13,4.33301 -8.5,-0.83301 -16.33301,-3 -22.33301,3 0.83301,-1.66602 9.83301,-3.83398 15.83301,-2.5 6,1.33398 14.16601,3.16699 19.5,-4.83301 z"
         style="fill:#ffffff;fill-opacity:1;fill-rule:nonzero;stroke:none"
         transform="matrix(1.3333333,0,0,1.3333333,0,480)"
         clip-path="url(#clipPath19)"
         id="path20" />
    </g>
    <path
       id="path21"
       d="m 193.33301,-182.83301 c 0,0 -1.66602,-0.83398 -2.66602,1.66651 0.33301,0.33349 1.99903,0.33349 2.66602,-1.66651 z"
       style="fill:#231f20;fill-opacity:1;fill-rule:nonzero;stroke:none"
       transform="matrix(1.3333333,0,0,1.3333333,0,480)" />
    <path
       id="path22"
       d="m 200.78613,-196.68799 c 0,0 -1.8623,0.0342 -1.58789,2.71338 0.4502,0.14063 1.92578,-0.63232 1.58789,-2.71338 z"
       style="fill:#231f20;fill-opacity:1;fill-rule:nonzero;stroke:none"
       transform="matrix(1.3333333,0,0,1.3333333,0,480)" />
    <path
       id="path23"
       d="m 230.3457,-213.10449 c 0,0 -1.375,-1.25586 -3.01855,0.87793 0.23047,0.41162 1.83301,0.86523 3.01855,-0.87793 z"
       style="fill:#231f20;fill-opacity:1;fill-rule:nonzero;stroke:none"
       transform="matrix(1.3333333,0,0,1.3333333,0,480)" />
    <path
       id="path24"
       d="m 235.24512,-196.44922 c 0,0 -0.92188,-1.61816 -3.14258,-0.0942 0.0928,0.46241 1.47754,1.3877 3.14258,0.0942 z"
       style="fill:#231f20;fill-opacity:1;fill-rule:nonzero;stroke:none"
       transform="matrix(1.3333333,0,0,1.3333333,0,480)" />
  </g>
</svg>
